<svg width="4" height="5" viewBox="0 0 4 5" fill="none" xmlns="http://www.w3.org/2000/svg">
<path d="M2.18665 0.164383C1.71389 0.165292 1.26081 0.321077 0.926515 0.597658C0.592222 0.874238 0.403931 1.2491 0.402832 1.64024C0.402832 2.664 2.19022 4.41339 2.19022 4.41339C2.19022 4.41339 3.97404 2.61382 3.97404 1.64024C3.97293 1.24859 3.78415 0.873282 3.44909 0.596617C3.11403 0.319952 2.66003 0.164512 2.18665 0.164383V0.164383ZM2.72536 2.07464C2.65467 2.13322 2.57069 2.17967 2.47824 2.21133C2.3858 2.24299 2.2867 2.25923 2.18665 2.25912C2.08659 2.25926 1.98749 2.24303 1.89504 2.21137C1.80259 2.17971 1.71861 2.13324 1.64794 2.07464C1.50531 1.95632 1.42522 1.79604 1.42522 1.62893C1.42522 1.46182 1.50531 1.30154 1.64794 1.18322C1.71853 1.12453 1.80249 1.07801 1.89496 1.04634C1.98743 1.01468 2.08657 0.998496 2.18665 0.998737C2.28673 0.998496 2.38587 1.01468 2.47834 1.04634C2.57081 1.07801 2.65477 1.12453 2.72536 1.18322C2.86799 1.30154 2.94808 1.46182 2.94808 1.62893C2.94808 1.79604 2.86799 1.95632 2.72536 2.07464Z" fill="#02341C"/>
</svg>
