<svg width="156" height="21" viewBox="0 0 156 21" fill="none" xmlns="http://www.w3.org/2000/svg">
<path d="M9.53783 10.696L16.0478 6.93596C17.5778 6.05596 18.1078 4.09596 17.2178 2.55596C16.3378 1.02596 14.3778 0.495955 12.8378 1.38596L1.58783 7.88595L9.53783 10.696Z" fill="#E74436"/>
<path d="M14.4478 20.3559C15.5578 20.3559 16.6278 19.7859 17.2278 18.7559C18.1078 17.2259 17.5878 15.2659 16.0578 14.3759L4.80784 7.87595C3.27784 6.98595 1.31784 7.51595 0.427836 9.04595C-0.452164 10.5759 0.0678383 12.5359 1.59784 13.4259L12.8478 19.9259C13.3478 20.2159 13.8978 20.3559 14.4478 20.3559Z" fill="#4C78BC"/>
<path d="M25.6378 20.356C26.1778 20.356 26.7278 20.216 27.2378 19.926L38.4878 13.426L30.6478 10.556L24.0378 14.376C22.5078 15.256 21.9778 17.216 22.8678 18.756C23.4578 19.786 24.5278 20.356 25.6378 20.356Z" fill="#F6B819"/>
<path d="M36.8878 13.856C37.9978 13.856 39.0678 13.286 39.6678 12.256C40.5478 10.726 40.0278 8.76596 38.4978 7.87596L27.2478 1.37596C25.7178 0.495957 23.7578 1.01596 22.8678 2.54596C21.9878 4.07596 22.5078 6.03596 24.0378 6.92596L35.2878 13.426C35.7878 13.726 36.3378 13.856 36.8878 13.856Z" fill="#0B9D58"/>
<path d="M56.5714 7.16878C56.4546 6.8113 56.3006 6.49099 56.1095 6.20784C55.9219 5.92115 55.6972 5.67693 55.4353 5.47518C55.1769 5.27344 54.8831 5.11947 54.5539 5.01329C54.2248 4.90711 53.8638 4.85402 53.4709 4.85402C52.8267 4.85402 52.241 5.02037 51.7136 5.35307C51.1862 5.68578 50.7668 6.17598 50.4553 6.82369C50.1439 7.4714 49.9881 8.26599 49.9881 9.20747C49.9881 10.149 50.1456 10.9435 50.4606 11.5913C50.7756 12.239 51.2021 12.7292 51.7401 13.0619C52.2781 13.3946 52.8834 13.5609 53.5558 13.5609C54.1788 13.5609 54.7274 13.4282 55.2017 13.1627C55.6795 12.8938 56.0511 12.515 56.3166 12.0266C56.5856 11.5346 56.7201 10.9559 56.7201 10.2905L57.1235 10.3755H53.8531V9.20747H57.9942V10.3755C57.9942 11.2709 57.8031 12.0496 57.4209 12.7115C57.0421 13.3733 56.5183 13.8866 55.8494 14.2511C55.184 14.6121 54.4195 14.7926 53.5558 14.7926C52.5931 14.7926 51.7472 14.5661 51.0181 14.1131C50.2925 13.66 49.7262 13.0159 49.3192 12.1806C48.9157 11.3453 48.7139 10.3542 48.7139 9.20747C48.7139 8.3474 48.829 7.57404 49.059 6.8874C49.2926 6.19722 49.6218 5.60968 50.0465 5.12478C50.4713 4.63988 50.9739 4.26825 51.5543 4.00987C52.1348 3.7515 52.7736 3.62231 53.4709 3.62231C54.0443 3.62231 54.5787 3.70902 55.0742 3.88245C55.5733 4.05234 56.0175 4.29479 56.4068 4.6098C56.7997 4.92127 57.1271 5.29467 57.389 5.73002C57.6509 6.16182 57.8314 6.64141 57.9305 7.16878H56.5714ZM63.6046 14.644H60.2493V3.77096H63.7533C64.808 3.77096 65.7106 3.98864 66.4609 4.42398C67.2113 4.85579 67.7864 5.47695 68.1864 6.28747C68.5863 7.09445 68.7863 8.06071 68.7863 9.18624C68.7863 10.3188 68.5845 11.2939 68.1811 12.1115C67.7776 12.9256 67.19 13.5521 66.4184 13.991C65.6469 14.4263 64.7089 14.644 63.6046 14.644ZM61.5659 13.476H63.5197C64.4187 13.476 65.1637 13.3026 65.7548 12.9557C66.3459 12.6088 66.7865 12.1151 67.0768 11.4745C67.367 10.8338 67.5121 10.0711 67.5121 9.18624C67.5121 8.30847 67.3688 7.55281 67.0821 6.91925C66.7954 6.28216 66.3671 5.79373 65.7973 5.45394C65.2274 5.11062 64.5178 4.93896 63.6683 4.93896H61.5659V13.476ZM78.4276 7.16878C78.3108 6.8113 78.1568 6.49099 77.9657 6.20784C77.7781 5.92115 77.5534 5.67693 77.2915 5.47518C77.0331 5.27344 76.7393 5.11947 76.4102 5.01329C76.081 4.90711 75.72 4.85402 75.3271 4.85402C74.6829 4.85402 74.0972 5.02037 73.5698 5.35307C73.0424 5.68578 72.623 6.17598 72.3115 6.82369C72.0001 7.4714 71.8443 8.26599 71.8443 9.20747C71.8443 10.149 72.0018 10.9435 72.3168 11.5913C72.6318 12.239 73.0583 12.7292 73.5963 13.0619C74.1343 13.3946 74.7396 13.5609 75.412 13.5609C76.035 13.5609 76.5836 13.4282 77.0579 13.1627C77.5357 12.8938 77.9073 12.515 78.1728 12.0266C78.4418 11.5346 78.5763 10.9559 78.5763 10.2905L78.9798 10.3755H75.7094V9.20747H79.8504V10.3755C79.8504 11.2709 79.6593 12.0496 79.2771 12.7115C78.8983 13.3733 78.3745 13.8866 77.7056 14.2511C77.0402 14.6121 76.2757 14.7926 75.412 14.7926C74.4493 14.7926 73.6034 14.5661 72.8743 14.1131C72.1487 13.66 71.5824 13.0159 71.1754 12.1806C70.7719 11.3453 70.5701 10.3542 70.5701 9.20747C70.5701 8.3474 70.6852 7.57404 70.9152 6.8874C71.1488 6.19722 71.478 5.60968 71.9027 5.12478C72.3275 4.63988 72.8301 4.26825 73.4105 4.00987C73.991 3.7515 74.6298 3.62231 75.3271 3.62231C75.9005 3.62231 76.4349 3.70902 76.9304 3.88245C77.4295 4.05234 77.8737 4.29479 78.263 4.6098C78.6559 4.92127 78.9833 5.29467 79.2452 5.73002C79.5071 6.16182 79.6876 6.64141 79.7867 7.16878H78.4276ZM86.3103 3.77096H87.8818L91.5769 12.7964H91.7043L95.3994 3.77096H96.9709V14.644H95.7392V6.38304H95.633L92.2352 14.644H91.046L87.6482 6.38304H87.542V14.644H86.3103V3.77096ZM101.841 14.8351C101.324 14.8351 100.855 14.7378 100.434 14.5431C100.013 14.3449 99.6781 14.06 99.4304 13.6883C99.1826 13.3132 99.0587 12.8601 99.0587 12.3292C99.0587 11.862 99.1508 11.4833 99.3348 11.1931C99.5189 10.8993 99.7648 10.6692 100.073 10.5029C100.381 10.3365 100.72 10.2127 101.092 10.1313C101.467 10.0463 101.844 9.97906 102.223 9.92951C102.718 9.8658 103.12 9.81802 103.428 9.78616C103.74 9.75077 103.966 9.69237 104.108 9.61096C104.253 9.52956 104.325 9.38798 104.325 9.18624V9.14376C104.325 8.61993 104.182 8.2129 103.895 7.92267C103.612 7.63244 103.182 7.48733 102.605 7.48733C102.007 7.48733 101.538 7.61828 101.198 7.8802C100.859 8.14211 100.62 8.42173 100.482 8.71904L99.2923 8.29431C99.5047 7.79879 99.7878 7.413 100.142 7.13693C100.499 6.85731 100.889 6.66265 101.31 6.55293C101.735 6.43967 102.152 6.38304 102.563 6.38304C102.825 6.38304 103.125 6.41489 103.465 6.4786C103.809 6.53877 104.14 6.66442 104.458 6.85554C104.78 7.04667 105.047 7.33513 105.26 7.72093C105.472 8.10672 105.578 8.62347 105.578 9.27118V14.644H104.325V13.5397H104.262C104.177 13.7167 104.035 13.906 103.837 14.1078C103.639 14.3095 103.375 14.4812 103.046 14.6227C102.717 14.7643 102.315 14.8351 101.841 14.8351ZM102.032 13.7096C102.527 13.7096 102.945 13.6122 103.285 13.4176C103.628 13.2229 103.886 12.9716 104.06 12.6637C104.237 12.3558 104.325 12.0319 104.325 11.6921V10.5454C104.272 10.6091 104.155 10.6675 103.975 10.7206C103.798 10.7701 103.593 10.8144 103.359 10.8533C103.129 10.8887 102.904 10.9205 102.685 10.9489C102.469 10.9736 102.294 10.9949 102.159 11.0126C101.834 11.055 101.529 11.1241 101.246 11.2196C100.966 11.3116 100.74 11.4514 100.567 11.639C100.397 11.8231 100.312 12.0744 100.312 12.3929C100.312 12.8283 100.473 13.1574 100.795 13.3804C101.12 13.5999 101.533 13.7096 102.032 13.7096ZM107.865 14.644V6.48922H109.118V14.644H107.865ZM108.502 5.13009C108.258 5.13009 108.047 5.04692 107.87 4.88056C107.697 4.71421 107.61 4.51424 107.61 4.28064C107.61 4.04704 107.697 3.84706 107.87 3.68071C108.047 3.51436 108.258 3.43118 108.502 3.43118C108.746 3.43118 108.955 3.51436 109.129 3.68071C109.306 3.84706 109.394 4.04704 109.394 4.28064C109.394 4.51424 109.306 4.71421 109.129 4.88056C108.955 5.04692 108.746 5.13009 108.502 5.13009ZM114.492 14.8139C113.813 14.8139 113.213 14.6422 112.692 14.2989C112.172 13.952 111.765 13.4636 111.471 12.8336C111.178 12.2 111.031 11.4514 111.031 10.5878C111.031 9.7313 111.178 8.98803 111.471 8.35802C111.765 7.72801 112.174 7.24134 112.698 6.89802C113.222 6.5547 113.827 6.38304 114.513 6.38304C115.044 6.38304 115.464 6.47152 115.772 6.64849C116.083 6.82192 116.32 7.02013 116.483 7.24311C116.65 7.46255 116.779 7.64306 116.871 7.78464H116.977V3.77096H118.23V14.644H117.019V13.391H116.871C116.779 13.5397 116.648 13.7273 116.478 13.9538C116.308 14.1768 116.066 14.3768 115.751 14.5537C115.436 14.7272 115.016 14.8139 114.492 14.8139ZM114.662 13.6883C115.165 13.6883 115.589 13.5574 115.936 13.2955C116.283 13.03 116.547 12.6637 116.727 12.1965C116.908 11.7258 116.998 11.1825 116.998 10.5666C116.998 9.95782 116.91 9.42515 116.733 8.96856C116.556 8.50844 116.294 8.15096 115.947 7.89613C115.6 7.63775 115.172 7.50856 114.662 7.50856C114.131 7.50856 113.689 7.64483 113.335 7.91736C112.984 8.18636 112.721 8.55268 112.544 9.01635C112.37 9.47647 112.284 9.99322 112.284 10.5666C112.284 11.1471 112.372 11.6744 112.549 12.1487C112.73 12.6194 112.995 12.9946 113.345 13.2742C113.699 13.5503 114.138 13.6883 114.662 13.6883ZM125.838 11.3099V6.48922H127.091V14.644H125.838V13.2636H125.753C125.562 13.6777 125.264 14.0299 124.861 14.3201C124.457 14.6068 123.948 14.7502 123.332 14.7502C122.822 14.7502 122.369 14.6387 121.973 14.4157C121.576 14.1892 121.265 13.8494 121.038 13.3963C120.812 12.9398 120.699 12.3646 120.699 11.6709V6.48922H121.952V11.5859C121.952 12.1806 122.118 12.6548 122.451 13.0088C122.787 13.3627 123.215 13.5397 123.735 13.5397C124.047 13.5397 124.364 13.4601 124.686 13.3008C125.011 13.1415 125.284 12.8973 125.503 12.5681C125.726 12.239 125.838 11.8195 125.838 11.3099ZM132.677 17.8719C132.072 17.8719 131.552 17.794 131.116 17.6383C130.681 17.4861 130.318 17.2844 130.028 17.0331C129.741 16.7853 129.513 16.5199 129.343 16.2367L130.341 15.5359C130.454 15.6846 130.598 15.8545 130.771 16.0456C130.945 16.2402 131.182 16.4084 131.483 16.5499C131.787 16.6951 132.185 16.7676 132.677 16.7676C133.336 16.7676 133.879 16.6083 134.307 16.2898C134.735 15.9713 134.95 15.4722 134.95 14.7926V13.1362H134.843C134.751 13.2849 134.62 13.4689 134.45 13.6883C134.284 13.9042 134.043 14.0971 133.728 14.267C133.417 14.4334 132.996 14.5166 132.465 14.5166C131.807 14.5166 131.215 14.3608 130.692 14.0494C130.171 13.7379 129.759 13.2849 129.455 12.6902C129.154 12.0956 129.003 11.3736 129.003 10.5241C129.003 9.68883 129.15 8.96148 129.444 8.34209C129.738 7.71916 130.147 7.2378 130.67 6.89802C131.194 6.5547 131.799 6.38304 132.486 6.38304C133.017 6.38304 133.438 6.47152 133.75 6.64849C134.065 6.82192 134.305 7.02013 134.472 7.24311C134.642 7.46255 134.773 7.64306 134.865 7.78464H134.992V6.48922H136.202V14.8776C136.202 15.5784 136.043 16.1482 135.725 16.5871C135.41 17.0295 134.985 17.3534 134.45 17.5587C133.92 17.7675 133.328 17.8719 132.677 17.8719ZM132.635 13.391C133.137 13.391 133.562 13.276 133.909 13.0459C134.256 12.8159 134.519 12.485 134.7 12.0531C134.88 11.6213 134.971 11.1046 134.971 10.5029C134.971 9.91535 134.882 9.39683 134.705 8.94733C134.528 8.49782 134.266 8.14565 133.92 7.89082C133.573 7.63598 133.144 7.50856 132.635 7.50856C132.104 7.50856 131.661 7.64306 131.307 7.91205C130.957 8.18105 130.693 8.54207 130.516 8.99511C130.343 9.44815 130.256 9.95075 130.256 10.5029C130.256 11.0692 130.345 11.57 130.522 12.0054C130.702 12.4372 130.968 12.777 131.318 13.0247C131.672 13.2689 132.111 13.391 132.635 13.391ZM143.635 11.3099V6.48922H144.888V14.644H143.635V13.2636H143.55C143.359 13.6777 143.062 14.0299 142.658 14.3201C142.255 14.6068 141.745 14.7502 141.129 14.7502C140.62 14.7502 140.167 14.6387 139.77 14.4157C139.374 14.1892 139.062 13.8494 138.836 13.3963C138.609 12.9398 138.496 12.3646 138.496 11.6709V6.48922H139.749V11.5859C139.749 12.1806 139.915 12.6548 140.248 13.0088C140.584 13.3627 141.013 13.5397 141.533 13.5397C141.844 13.5397 142.161 13.4601 142.483 13.3008C142.809 13.1415 143.081 12.8973 143.301 12.5681C143.524 12.239 143.635 11.8195 143.635 11.3099ZM147.183 14.644V6.48922H148.393V7.72093H148.478C148.627 7.31744 148.896 6.99004 149.285 6.73874C149.675 6.48745 150.114 6.3618 150.602 6.3618C150.694 6.3618 150.809 6.36357 150.947 6.36711C151.085 6.37065 151.19 6.37596 151.26 6.38304V7.65722C151.218 7.6466 151.121 7.63067 150.968 7.60944C150.82 7.58466 150.662 7.57227 150.496 7.57227C150.099 7.57227 149.746 7.65545 149.434 7.8218C149.126 7.98461 148.882 8.21113 148.701 8.50136C148.524 8.78805 148.436 9.11545 148.436 9.48355V14.644H147.183ZM152.746 14.644V6.48922H153.999V14.644H152.746ZM153.383 5.13009C153.138 5.13009 152.928 5.04692 152.751 4.88056C152.577 4.71421 152.491 4.51424 152.491 4.28064C152.491 4.04704 152.577 3.84706 152.751 3.68071C152.928 3.51436 153.138 3.43118 153.383 3.43118C153.627 3.43118 153.836 3.51436 154.009 3.68071C154.186 3.84706 154.275 4.04704 154.275 4.28064C154.275 4.51424 154.186 4.71421 154.009 4.88056C153.836 5.04692 153.627 5.13009 153.383 5.13009Z" fill="black"/>
</svg>
